<svg width="25" height="24" viewBox="0 0 25 24" fill="none" xmlns="http://www.w3.org/2000/svg">
    <path
        d="M18.5399 16.2158L18.1708 16.4745L18.226 16.9219L18.6158 20.0797C18.6158 20.08 18.6158 20.0803 18.6159 20.0806C18.6418 20.3011 18.4137 20.4283 18.2489 20.3285L18.2489 20.3285L18.2441 20.3256L14.993 18.39C15.485 17.4127 15.7504 16.3237 15.7504 15.23C15.7504 11.1191 12.2369 7.84 8.00038 7.84C7.29367 7.84 6.5971 7.92763 5.92932 8.10507C6.90857 5.03555 9.9783 2.75 13.6704 2.75C18.1856 2.75 21.7504 6.152 21.7504 10.24C21.7504 12.6717 20.4999 14.842 18.5399 16.2158Z"
        fill="#000000" stroke="#000000" stroke-width="1.5" />
    <path
        d="M13.5 15.2298C13.5 16.4198 13.06 17.5198 12.32 18.3898C11.33 19.5898 9.76 20.3598 8 20.3598L5.39 21.9098C4.95 22.1798 4.39 21.8098 4.45 21.2998L4.7 19.3298C3.36 18.3998 2.5 16.9098 2.5 15.2298C2.5 13.4698 3.44 11.9198 4.88 10.9998C5.77 10.4198 6.84 10.0898 8 10.0898C11.04 10.0898 13.5 12.3898 13.5 15.2298Z"
        fill="#000000" />
</svg>
    