<svg width="25" height="24" viewBox="0 0 25 24" fill="none" xmlns="http://www.w3.org/2000/svg">
    <path
        d="M20.6 9.21945C18.79 9.21945 18.05 7.93945 18.95 6.36945C19.47 5.45945 19.16 4.29945 18.25 3.77945L16.52 2.78945C15.73 2.31945 14.71 2.59945 14.24 3.38945L14.13 3.57945C13.23 5.14945 11.75 5.14945 10.84 3.57945L10.73 3.38945C10.28 2.59945 9.26 2.31945 8.47 2.78945L6.74 3.77945C5.83 4.29945 5.52 5.46945 6.04 6.37945C6.95 7.93945 6.21 9.21945 4.4 9.21945C3.36 9.21945 2.5 10.0694 2.5 11.1194V12.8794C2.5 13.9194 3.35 14.7794 4.4 14.7794C6.21 14.7794 6.95 16.0594 6.04 17.6294C5.52 18.5394 5.83 19.6994 6.74 20.2194L8.47 21.2094C9.26 21.6794 10.28 21.3995 10.75 20.6094L10.86 20.4194C11.76 18.8494 13.24 18.8494 14.15 20.4194L14.26 20.6094C14.73 21.3995 15.75 21.6794 16.54 21.2094L18.27 20.2194C19.18 19.6994 19.49 18.5294 18.97 17.6294C18.06 16.0594 18.8 14.7794 20.61 14.7794C21.65 14.7794 22.51 13.9294 22.51 12.8794V11.1194C22.5 10.0794 21.65 9.21945 20.6 9.21945ZM12.5 15.2494C10.71 15.2494 9.25 13.7894 9.25 11.9994C9.25 10.2094 10.71 8.74945 12.5 8.74945C14.29 8.74945 15.75 10.2094 15.75 11.9994C15.75 13.7894 14.29 15.2494 12.5 15.2494Z"
        fill="#000000" />
</svg>
    